<svg width="128" height="128" viewBox="0 0 128 128" fill="none" xmlns="http://www.w3.org/2000/svg">
<g filter="url(#filter0_i_12_162)">
<rect width="128" height="128" fill="#FFF9F2"/>
<path d="M26 59C26 49.0589 34.0589 41 44 41H74C83.9411 41 92 49.0589 92 59V93C92 96.3137 89.3137 99 86 99H32C28.6863 99 26 96.3137 26 93V59Z" fill="white" stroke="#403020" stroke-width="6" stroke-linecap="round" stroke-linejoin="round"/>
<path d="M29 70H89V93C89 94.6569 87.6569 96 86 96H32C30.3431 96 29 94.6569 29 93V70Z" fill="#DEAD7C"/>
<path d="M35 29L41 41H77V29H35Z" fill="white" stroke="#403020" stroke-width="6" stroke-linecap="round" stroke-linejoin="round"/>
<path d="M77 29V29C91.9117 29 104 41.0883 104 56V66.5" stroke="#403020" stroke-width="6" stroke-linecap="round" stroke-linejoin="round"/>
<path d="M77 50C77 50 83 51.5 83 59" stroke="#403020" stroke-width="6" stroke-linecap="round" stroke-linejoin="round"/>
</g>
<defs>
<filter id="filter0_i_12_162" x="0" y="0" width="128" height="128" filterUnits="userSpaceOnUse" color-interpolation-filters="sRGB">
<feFlood flood-opacity="0" result="BackgroundImageFix"/>
<feBlend mode="normal" in="SourceGraphic" in2="BackgroundImageFix" result="shape"/>
<feColorMatrix in="SourceAlpha" type="matrix" values="0 0 0 0 0 0 0 0 0 0 0 0 0 0 0 0 0 0 127 0" result="hardAlpha"/>
<feOffset/>
<feGaussianBlur stdDeviation="24"/>
<feComposite in2="hardAlpha" operator="arithmetic" k2="-1" k3="1"/>
<feColorMatrix type="matrix" values="0 0 0 0 0.937255 0 0 0 0 0.909804 0 0 0 0 0.882353 0 0 0 1 0"/>
<feBlend mode="normal" in2="shape" result="effect1_innerShadow_12_162"/>
</filter>
</defs>
</svg>
