<svg width="48" height="64" viewBox="0 0 48 64" xmlns="http://www.w3.org/2000/svg" fill="none" stroke="currentColor" stroke-width="2" stroke-linecap="round" stroke-linejoin="round">
<rect opacity="0.4" fill="#cd853f" stroke="none" x="15" y="44" width="18" height="8" />
<path d="M34 25H37C38.1046 25 39 25.8954 39 27V44C39 45.1046 38.1046 46 37 46H34" />
<rect x="11" y="53" width="26" height="4" />
<path d="M14 53V21H34V53" />
<path d="M12 21H36" />
<path d="M14 21.5C14 21.5 16 15 24 15C32 15 34 21.5 34 21.5" />
<circle cx="24" cy="9" r="2" />
<path d="M24 21V39" />
<path d="M19 39H29" />
<path d="M24 11V14" />
<path d="M14 24L10 26L14 31" />
</svg>
