<svg width="48" height="64" viewBox="0 0 48 64" xmlns="http://www.w3.org/2000/svg" fill="none" stroke="currentColor" stroke-width="2" stroke-linecap="round" stroke-linejoin="round">
<path d="M34 25H36C37.1046 25 38 25.8954 38 27V44C38 45.1046 37.1046 46 36 46H34" />
<rect x="11" y="53" width="26" height="4" />
<path d="M14 53V21H34V53" />
<path d="M12 21H36" />
<path d="M14 21.5C14 21.5 16 15 24 15C32 15 34 21.5 34 21.5" />
<circle cx="24" cy="9" r="2" />
<path d="M24 21V40.5" />
<path d="M18 41H30" />
<path d="M24 11V14" />
<path d="M14 24L10 26L14 31" />
</svg>
