<svg width="48" height="64" viewBox="0 0 48 64" xmlns="http://www.w3.org/2000/svg" fill="none" stroke="currentColor" stroke-width="2" stroke-linecap="round" stroke-linejoin="round">
<path opacity="0.4" fill="#cd853f" stroke="none" d="M36.2 55.4L36.6124 54.8501C37.4709 53.7055 37.6526 52.1895 37.089 50.8744L35 46H10.5L8.72324 50.9749C8.27164 52.2394 8.48459 53.6461 9.29021 54.7203L9.8 55.4C10.5554 56.4072 11.741 57 13 57H33C34.259 57 35.4446 56.4072 36.2 55.4Z" />
<path d="M36.3436 9H9.65636C8.90385 9 8.42097 9.79984 8.77145 10.4657L17.7188 27.4657C17.8917 27.7943 18.2325 28 18.6037 28H27.3963C27.7675 28 28.1083 27.7943 28.2812 27.4657L37.2286 10.4657C37.579 9.79984 37.0961 9 36.3436 9Z" />
<path d="M13 28H33" />
<path d="M17 29H29" />
<path d="M32 32H11.5L14 37L8.76935 50.9484C8.29005 52.2265 8.49564 53.6609 9.31467 54.7529L9.8 55.4C10.5554 56.4072 11.741 57 13 57H33C34.259 57 35.4446 56.4072 36.2 55.4L36.6183 54.8423C37.4736 53.7018 37.6574 52.1924 37.1006 50.8801L31 36.5L32 32Z" />
<path d="M37 49L39.8655 46.4927C40.5371 45.905 40.7381 44.9435 40.3581 44.136L37.5404 38.1484C37.2106 37.4474 36.5055 37 35.7308 37H32" />
<path d="M31 22.4463C33.4995 21.018 42.2059 17.7111 40.5 13.4463C39.5 10.9463 36.5 12.4463 36.5 12.4463" />
</svg>
